<svg width="301" height="320" viewBox="0 0 301 320" fill="none" xmlns="http://www.w3.org/2000/svg">
<mask id="mask0_6_687" style="mask-type:luminance" maskUnits="userSpaceOnUse" x="9" y="5" width="292" height="315">
<path d="M9.65863 5.16382H300.177V319.404H9.65863V5.16382Z" fill="white"/>
</mask>
<g mask="url(#mask0_6_687)">
<path fill-rule="evenodd" clip-rule="evenodd" d="M155.517 5.38873L155.407 5.38516C154.222 5.38516 153.262 6.34903 153.262 7.53244C153.262 88.3706 90.1304 155.024 11.6357 163.741C10.549 163.861 9.72822 164.78 9.72822 165.874C9.72822 166.967 10.549 167.886 11.6357 168.007C87.7608 176.461 149.552 239.403 153.094 316.932L153.096 316.955L153.101 317.016L153.103 317.041L153.105 317.064L153.112 317.128L153.116 317.15L153.117 317.169L153.13 317.232L153.135 317.257L153.139 317.275L153.151 317.33L153.159 317.36L153.162 317.378L153.175 317.425L153.187 317.464L153.191 317.476L153.205 317.516L153.221 317.564L153.225 317.576L153.237 317.603L153.258 317.662L153.301 317.758L153.349 317.851L153.399 317.942L153.457 318.028L153.517 318.112L153.58 318.194L153.647 318.273L153.717 318.347L153.724 318.355L153.765 318.392L153.801 318.424L153.878 318.492L153.96 318.556L154.044 318.615L154.131 318.672L154.22 318.724L154.313 318.771L154.409 318.813L154.466 318.835L154.495 318.847L154.507 318.853L154.556 318.867L154.593 318.881L154.607 318.887L154.647 318.895L154.695 318.91L154.711 318.915L154.741 318.922L154.798 318.935L154.814 318.938L154.839 318.942L154.904 318.954L154.921 318.958H154.943L155.009 318.967L155.03 318.969L155.055 318.97L155.118 318.976L155.141 318.978H155.175L155.225 318.979H155.252L155.302 318.978H155.337L155.36 318.976L155.421 318.97L155.446 318.969L155.467 318.967L155.533 318.958H155.555L155.573 318.954L155.637 318.942L155.662 318.938L155.678 318.935L155.735 318.922L155.765 318.915L155.782 318.91L155.83 318.895L155.869 318.887L155.883 318.881L155.921 318.867L155.969 318.853L155.981 318.847L156.01 318.835L156.067 318.813L156.163 318.771L156.256 318.724L156.345 318.672L156.433 318.615L156.517 318.556L156.599 318.492L156.675 318.424L156.752 318.355L156.759 318.347L156.797 318.306L156.829 318.273L156.897 318.194L156.959 318.112L157.02 318.028L157.077 317.942L157.127 317.851L157.175 317.758L157.218 317.662L157.239 317.603L157.252 317.576L157.255 317.564L157.271 317.516L157.286 317.476L157.289 317.464L157.302 317.425L157.314 317.378L157.318 317.36L157.325 317.33L157.337 317.275L157.341 317.257L157.346 317.232L157.359 317.169L157.361 317.15L157.364 317.128L157.371 317.064L157.373 317.041L157.375 317.016L157.38 316.955L157.382 316.932C160.922 239.405 222.13 176.459 298.252 168.007C299.339 167.886 300.159 166.967 300.159 165.874C300.159 164.78 299.339 163.861 298.252 163.741C219.761 155.026 157.553 88.367 157.553 7.53244C157.553 6.38651 156.65 5.44585 155.517 5.38873ZM155.393 33.5979C144.287 99.9441 91.5918 152.782 25.889 165.874C91.2403 178.894 143.8 231.223 155.232 297.05C166.587 231.221 218.71 178.892 284.007 165.874C218.387 152.782 166.35 99.9477 155.393 33.5979Z" fill="url(#paint0_linear_6_687)"/>
</g>
<mask id="mask1_6_687" style="mask-type:luminance" maskUnits="userSpaceOnUse" x="103" y="127" width="104" height="94">
<path d="M103.691 127.114H206.012V220.046H103.691V127.114Z" fill="white"/>
</mask>
<g mask="url(#mask1_6_687)">
<mask id="mask2_6_687" style="mask-type:luminance" maskUnits="userSpaceOnUse" x="103" y="127" width="103" height="94">
<path d="M204.621 146.751C201.387 135.77 190.953 127.114 178.614 127.114C168.254 127.114 159.254 132.96 154.704 141.549C150.154 132.962 141.155 127.114 130.795 127.114C117.889 127.114 106.6 135.77 104.384 148.334C98.7631 180.195 134.386 205.132 154.784 220.046C173.643 206.257 213.862 178.146 204.621 146.751Z" fill="white"/>
</mask>
<g mask="url(#mask2_6_687)">
<mask id="mask3_6_687" style="mask-type:luminance" maskUnits="userSpaceOnUse" x="103" y="127" width="104" height="94">
<path d="M206.012 127.031H103.691V220.247H206.012V127.031Z" fill="white"/>
</mask>
<g mask="url(#mask3_6_687)">
<mask id="mask4_6_687" style="mask-type:luminance" maskUnits="userSpaceOnUse" x="103" y="127" width="103" height="94">
<path d="M103.79 127.114H205.978V220.046H103.79V127.114Z" fill="white"/>
</mask>
<g mask="url(#mask4_6_687)">
<mask id="mask5_6_687" style="mask-type:luminance" maskUnits="userSpaceOnUse" x="103" y="127" width="103" height="94">
<path d="M204.621 146.751C201.388 135.77 190.953 127.114 178.614 127.114C168.254 127.114 159.254 132.96 154.704 141.549C150.154 132.962 141.155 127.114 130.796 127.114C117.889 127.114 106.6 135.77 104.384 148.334C98.7632 180.195 134.386 205.132 154.784 220.046C173.643 206.257 213.862 178.146 204.621 146.751Z" fill="white"/>
</mask>
<g mask="url(#mask5_6_687)">
<path d="M103.79 127.114V220.046H205.978V127.114H103.79Z" fill="#F294A8"/>
</g>
</g>
</g>
</g>
</g>
<mask id="mask6_6_687" style="mask-type:luminance" maskUnits="userSpaceOnUse" x="0" y="0" width="177" height="178">
<path d="M176.778 0H0V177.294H176.778V0Z" fill="white"/>
</mask>
<g mask="url(#mask6_6_687)">
<path d="M60.3517 133.039L60.68 132.953L60.7799 133.36L51.6227 135.681L51.5228 135.274L51.8939 135.181C52.4595 135.034 52.8378 134.742 53.0287 134.303C53.2232 133.865 53.2785 133.485 53.1929 133.16C53.1108 132.832 52.9752 132.521 52.7861 132.225L48.4251 125.956L37.4336 128.741L36.4701 136.395C36.4451 136.748 36.4737 137.08 36.5557 137.394C36.636 137.705 36.8644 138.006 37.2409 138.301C37.6156 138.597 38.0903 138.672 38.6613 138.529L39.0253 138.436L39.1252 138.843L30.9458 140.914L30.8459 140.507L31.2099 140.414C31.8897 140.243 32.4982 139.861 33.037 139.265C33.5795 138.665 33.947 137.892 34.1433 136.944L37.7976 112.705C38.2437 110.249 38.3936 108.724 38.2473 108.128L38.6113 108.035L56.1263 131.375C56.7152 132.123 57.3914 132.632 58.1533 132.903C58.9135 133.171 59.6468 133.216 60.3517 133.039ZM37.6192 127.398L47.6258 124.864L39.4392 113.033L37.6192 127.398Z" fill="url(#paint1_linear_6_687)"/>
<path d="M64.2254 129.666C64.0005 129.4 63.6562 128.805 63.1904 127.881C62.7283 126.952 62.4232 125.931 62.2697 124.818L62.7194 124.589C62.8086 124.828 62.9121 125.06 63.0263 125.289C63.7008 126.642 64.6982 127.527 66.0168 127.945C67.339 128.364 68.7879 128.179 70.3635 127.388C72.014 126.56 73.1114 125.532 73.6538 124.304C74.1998 123.072 74.1695 121.847 73.561 120.634C72.9508 119.42 71.9944 118.638 70.6918 118.285L60.2855 116.278C58.5726 115.85 57.2843 114.772 56.4171 113.044C55.9318 112.07 55.7515 111.034 55.8747 109.938C55.9942 108.844 56.4153 107.811 57.138 106.84C57.8571 105.869 58.8688 105.058 60.1714 104.405C61.4703 103.754 62.673 103.288 63.7828 103.006L65.0247 102.385L67.1588 106.44L66.7377 106.647C66.2095 105.596 65.4387 104.966 64.4252 104.755C63.4153 104.541 62.2376 104.773 60.8851 105.447C59.5343 106.124 58.594 107.029 58.0658 108.161C57.5341 109.289 57.5412 110.399 58.0872 111.488C58.6297 112.578 59.5861 113.278 60.9565 113.587L71.484 115.643C73.1114 116.02 74.3497 117.06 75.2026 118.763C76.0537 120.462 76.1305 122.224 75.431 124.047C74.7315 125.865 73.4557 127.238 71.6054 128.166C70.3778 128.78 69.0752 129.248 67.7013 129.566C66.3255 129.88 65.1675 129.914 64.2254 129.666Z" fill="url(#paint2_linear_6_687)"/>
<path d="M95.3889 112.7C92.0344 115.375 88.6548 116.577 85.2539 116.305C81.8529 116.034 78.8713 114.317 76.3108 111.151C73.7467 107.98 72.6886 104.703 73.1347 101.319C73.5825 97.9312 75.4739 94.8861 78.8089 92.1873C80.156 91.0985 81.6549 90.1739 83.3054 89.4171C84.9612 88.6567 86.535 88.1748 88.0303 87.9749L92.4983 92.0231L92.1985 92.2587C88.2337 89.2707 84.0209 89.5813 79.5583 93.194C76.971 95.2895 75.5953 97.7742 75.4329 100.648C75.2669 103.518 76.3447 106.392 78.6661 109.266C80.1792 111.136 81.8315 112.491 83.6194 113.328C85.4127 114.167 87.263 114.446 89.1723 114.163C91.0708 113.889 92.8659 113.064 94.561 111.693C96.2597 110.319 97.539 108.859 98.4009 107.316C99.2609 105.774 99.6356 104.079 99.5214 102.226C99.4108 100.369 98.7042 98.5274 97.4016 96.6996L97.7014 96.4569L100.949 101.226C101.158 103.216 100.76 105.239 99.757 107.295C98.7577 109.351 97.3017 111.154 95.3889 112.7Z" fill="url(#paint3_linear_6_687)"/>
<path d="M108.849 98.7425C109.258 98.2142 109.435 97.6358 109.378 97.0075C109.321 96.3757 109.056 95.858 108.585 95.4582L92.8262 83.2278C92.3462 82.853 91.7948 82.7245 91.1703 82.8423C90.5422 82.9565 90.0247 83.2778 89.6144 83.8061L89.2575 84.2702L88.922 84.0132L96.4305 74.3245C97.1353 73.416 97.6903 72.5682 98.0935 71.7828C98.4932 70.9974 98.7252 70.4691 98.7858 70.1978L102.569 73.1393L102.255 73.4678L101.762 73.0822C101.296 72.7217 100.777 72.5682 100.206 72.6253C99.6352 72.6788 99.1606 72.9466 98.7787 73.4321L93.4257 80.3362L101.848 86.8762L106.252 81.2001C106.594 80.7575 106.726 80.3201 106.644 79.8864C106.558 79.4491 106.316 79.076 105.916 78.7655L105.481 78.4228L105.766 78.0515L110.413 81.6642L110.127 82.0355L109.692 81.6928C109.078 81.218 108.478 81.1252 107.893 81.4143C107.688 81.5428 107.495 81.6963 107.315 81.8713L102.84 87.6473L111.269 94.1873L115.309 88.9753C116.097 87.9579 116.586 86.9619 116.772 85.9909C116.961 85.0199 116.954 84.1631 116.751 83.4206C116.551 82.6781 116.197 81.8106 115.694 80.8146L115.951 80.479L119.27 85.9909L108.828 99.4636L108.493 99.2066L108.849 98.7425Z" fill="url(#paint4_linear_6_687)"/>
<path d="M123.69 78.241C123.99 77.6413 124.047 77.0398 123.862 76.4347C123.68 75.826 123.321 75.3708 122.784 75.071L104.99 66.2534C104.419 66.0017 103.827 65.9963 103.213 66.2391C102.596 66.4818 102.135 66.9031 101.836 67.5028L101.614 67.9526L101.236 67.7599L105.09 59.9704L105.469 60.1632L105.247 60.613C104.953 61.2127 104.896 61.8321 105.076 62.4693C105.258 63.1083 105.626 63.5653 106.182 63.8401L125.182 73.2575L128.087 67.3886C128.661 66.232 128.947 65.1538 128.943 64.1543C128.938 63.1511 128.761 62.3051 128.415 61.6197C128.067 60.9343 127.541 60.1685 126.838 59.3207L127.023 58.9423L131.377 63.6759L123.812 78.955L123.433 78.7694L123.69 78.241Z" fill="url(#paint5_linear_6_687)"/>
<path d="M140.171 31.2752L140.249 30.9539L140.656 31.0539L138.615 39.4145L138.208 39.3146L138.294 38.9933C138.417 38.4757 138.333 38.0366 138.044 37.6796C137.758 37.3226 137.459 37.1066 137.145 37.0299C136.834 36.9549 136.516 36.9353 136.188 36.9727L130.221 37.8938L127.709 48.2179L132.462 51.7592C132.782 51.9734 133.098 52.1197 133.412 52.1947C133.722 52.2714 134.092 52.2197 134.525 52.0376C134.962 51.852 135.248 51.4914 135.382 50.9524L135.46 50.6239L135.867 50.7239L133.968 58.5134L133.562 58.4134L133.64 58.0921C133.779 57.521 133.724 56.8962 133.476 56.2144C133.224 55.5343 132.748 54.906 132.049 54.3295C120.777 45.2727 114.867 40.548 114.319 40.1571C113.292 39.4145 112.592 38.9861 112.221 38.8719L112.314 38.5006L137.03 33.8384C138.804 33.4386 139.851 32.5854 140.171 31.2752ZM126.61 47.3896L128.872 38.0794L116.582 39.9286L126.61 47.3896Z" fill="url(#paint6_linear_6_687)"/>
</g>
<defs>
<linearGradient id="paint0_linear_6_687" x1="154.944" y1="5.38516" x2="154.944" y2="318.979" gradientUnits="userSpaceOnUse">
<stop stop-color="#F294A8"/>
<stop offset="1" stop-color="#364153"/>
</linearGradient>
<linearGradient id="paint1_linear_6_687" x1="45.8129" y1="108.035" x2="45.8129" y2="140.914" gradientUnits="userSpaceOnUse">
<stop stop-color="#F294A8"/>
<stop offset="1" stop-color="#364153"/>
</linearGradient>
<linearGradient id="paint2_linear_6_687" x1="65.8706" y1="102.385" x2="65.8706" y2="129.829" gradientUnits="userSpaceOnUse">
<stop stop-color="#F294A8"/>
<stop offset="1" stop-color="#364153"/>
</linearGradient>
<linearGradient id="paint3_linear_6_687" x1="87.0191" y1="87.9749" x2="87.0191" y2="116.343" gradientUnits="userSpaceOnUse">
<stop stop-color="#F294A8"/>
<stop offset="1" stop-color="#364153"/>
</linearGradient>
<linearGradient id="paint4_linear_6_687" x1="104.096" y1="70.1978" x2="104.096" y2="99.4636" gradientUnits="userSpaceOnUse">
<stop stop-color="#F294A8"/>
<stop offset="1" stop-color="#364153"/>
</linearGradient>
<linearGradient id="paint5_linear_6_687" x1="116.307" y1="58.9423" x2="116.307" y2="78.955" gradientUnits="userSpaceOnUse">
<stop stop-color="#F294A8"/>
<stop offset="1" stop-color="#364153"/>
</linearGradient>
<linearGradient id="paint6_linear_6_687" x1="126.439" y1="30.9539" x2="126.439" y2="58.5134" gradientUnits="userSpaceOnUse">
<stop stop-color="#F294A8"/>
<stop offset="1" stop-color="#364153"/>
</linearGradient>
</defs>
</svg>
