<svg width="16" height="16" viewBox="0 0 16 16" fill="none" xmlns="http://www.w3.org/2000/svg">
<g clip-path="url(#clip0_70_3879)">
<path d="M11.5209 6.0333C11.6803 5.48684 11.7102 4.91077 11.6084 4.35072C11.5066 3.79067 11.2758 3.26202 10.9342 2.80663C10.5927 2.35125 10.1498 1.98163 9.64066 1.72707C9.13152 1.4725 8.57011 1.33997 8.00088 1.33997C7.43165 1.33997 6.87023 1.4725 6.36109 1.72707C5.85196 1.98163 5.40908 2.35125 5.06754 2.80663C4.726 3.26202 4.49518 3.79067 4.39335 4.35072C4.29153 4.91077 4.32149 5.48684 4.48088 6.0333C3.87953 6.11974 3.30909 6.35425 2.82082 6.71575C2.33256 7.07724 1.94176 7.5544 1.68356 8.10432C1.42536 8.65425 1.30786 9.25972 1.3416 9.8663C1.37534 10.4729 1.55927 11.0616 1.87687 11.5795C2.19447 12.0974 2.63577 12.5283 3.16112 12.8334C3.68647 13.1385 4.2794 13.3083 4.88662 13.3275C5.49384 13.3467 6.09632 13.2147 6.63991 12.9435C7.1835 12.6722 7.65117 12.2701 8.00088 11.7733C8.34971 12.2714 8.81696 12.675 9.36055 12.9476C9.90414 13.2203 10.507 13.3534 11.1149 13.3351C11.7227 13.3167 12.3165 13.1475 12.8426 12.8426C13.3688 12.5377 13.8109 12.1068 14.1291 11.5885C14.4473 11.0703 14.6316 10.481 14.6654 9.87382C14.6991 9.26663 14.5814 8.66057 14.3227 8.11022C14.064 7.55986 13.6724 7.08249 13.1833 6.7211C12.6942 6.3597 12.1229 6.12563 11.5209 6.03997V6.0333Z" fill="#1F1F1F" stroke="#1F1F1F" stroke-width="1.33333" stroke-linecap="round" stroke-linejoin="round"/>
<path d="M8 11.7733V14.6666V11.7733Z" fill="#1F1F1F"/>
<path d="M8 11.7733V14.6666" stroke="#1F1F1F" stroke-width="1.33333" stroke-linecap="round" stroke-linejoin="round"/>
</g>
<defs>
<clipPath id="clip0_70_3879">
<rect width="16" height="16" fill="white"/>
</clipPath>
</defs>
</svg>
