<svg width="16" height="16" viewBox="0 0 16 16" fill="none" xmlns="http://www.w3.org/2000/svg">
<path d="M1.33398 6.33332C1.334 5.59145 1.55905 4.86704 1.97941 4.25576C2.39977 3.64448 2.99566 3.17509 3.68839 2.90959C4.38112 2.64408 5.13809 2.59495 5.85933 2.76868C6.58056 2.94242 7.23213 3.33084 7.72798 3.88265C7.76291 3.92 7.80513 3.94977 7.85204 3.97012C7.89894 3.99047 7.94952 4.00098 8.00065 4.00098C8.05178 4.00098 8.10236 3.99047 8.14927 3.97012C8.19617 3.94977 8.23839 3.92 8.27332 3.88265C8.76761 3.32725 9.41933 2.93556 10.1417 2.75972C10.8641 2.58388 11.623 2.63222 12.3172 2.89831C13.0115 3.1644 13.6082 3.63562 14.0281 4.24925C14.4479 4.86289 14.6709 5.58983 14.6673 6.33332C14.6673 7.85999 13.6673 8.99999 12.6673 9.99999L9.00598 13.542C8.88176 13.6847 8.7286 13.7993 8.55668 13.8782C8.38476 13.9571 8.19801 13.9986 8.00884 13.9998C7.81968 14.0009 7.63242 13.9619 7.45951 13.8851C7.2866 13.8084 7.132 13.6957 7.00598 13.5547L3.33398 9.99999C2.33398 8.99999 1.33398 7.86665 1.33398 6.33332Z" fill="#DFDFDF"/>
</svg>
