<svg width="16" height="16" viewBox="0 0 16 16" fill="none" xmlns="http://www.w3.org/2000/svg">
<path d="M8 12V14.6667V12Z" fill="#1F1F1F"/>
<path d="M8 12V14.6667" stroke="#1F1F1F" stroke-width="1.33333" stroke-linecap="round" stroke-linejoin="round"/>
<path d="M1.33398 9.66595C1.33413 10.4078 1.55928 11.1321 1.97969 11.7433C2.4001 12.3544 2.996 12.8237 3.6887 13.0891C4.3814 13.3546 5.13831 13.4036 5.85949 13.2299C6.58066 13.0561 7.23217 12.6677 7.72798 12.1159C7.80211 12.0471 7.89959 12.0088 8.00078 12.0089C8.10198 12.0091 8.19936 12.0475 8.27332 12.1166C8.76913 12.6684 9.42064 13.0568 10.1418 13.2305C10.863 13.4043 11.6199 13.3552 12.3126 13.0898C13.0053 12.8244 13.6012 12.3551 14.0216 11.7439C14.442 11.1327 14.6672 10.4084 14.6673 9.66662C14.6673 8.13995 13.6673 6.99995 12.6673 5.99995L9.00598 2.45862C8.88181 2.3159 8.72869 2.20125 8.55679 2.12226C8.3849 2.04328 8.19816 2.00178 8.00899 2.00052C7.81983 1.99926 7.63255 2.03826 7.45962 2.11495C7.28669 2.19163 7.13205 2.30424 7.00598 2.44528L3.33398 5.99928C2.33398 6.99928 1.33398 8.13262 1.33398 9.66595Z" fill="#1F1F1F" stroke="#1F1F1F" stroke-width="1.33333" stroke-linecap="round" stroke-linejoin="round"/>
</svg>
