<svg width="16" height="16" viewBox="0 0 16 16" fill="none" xmlns="http://www.w3.org/2000/svg">
<path d="M1.79929 6.86661C1.64992 7.01583 1.53143 7.19302 1.45058 7.38806C1.36974 7.58309 1.32813 7.79215 1.32812 8.00328C1.32813 8.21441 1.36974 8.42347 1.45058 8.61851C1.53143 8.81354 1.64992 8.99073 1.79929 9.13995L6.85929 14.1999C7.0085 14.3493 7.18569 14.4678 7.38073 14.5487C7.57577 14.6295 7.78483 14.6711 7.99596 14.6711C8.20708 14.6711 8.41614 14.6295 8.61118 14.5487C8.80622 14.4678 8.98341 14.3493 9.13262 14.1999L14.1926 9.13995C14.342 8.99073 14.4605 8.81354 14.5413 8.61851C14.6222 8.42347 14.6638 8.21441 14.6638 8.00328C14.6638 7.79215 14.6222 7.58309 14.5413 7.38806C14.4605 7.19302 14.342 7.01583 14.1926 6.86661L9.13262 1.80661C8.98341 1.65725 8.80622 1.53875 8.61118 1.45791C8.41614 1.37706 8.20708 1.33545 7.99596 1.33545C7.78483 1.33545 7.57577 1.37706 7.38073 1.45791C7.18569 1.53875 7.0085 1.65725 6.85929 1.80661L1.79929 6.86661Z" fill="#DFDFDF"/>
</svg>
